<svg xmlns="http://www.w3.org/2000/svg" xmlns:xlink="http://www.w3.org/1999/xlink" width="1695.329" height="1190.286" viewBox="0 0 1695.329 1190.286">
  <defs>
    <filter id="shadow" x="0" y="0" width="1695.329" height="1190.286" filterUnits="userSpaceOnUse">
      <feOffset input="SourceAlpha"/>
      <feGaussianBlur stdDeviation="100" result="blur"/>
      <feFlood flood-color="#4e00ff" flood-opacity="1"/>
      <feComposite operator="in" in2="blur"/>
      <feComposite in="SourceGraphic"/>
    </filter>
  </defs>
  <g id="Guitar" transform="translate(38.304 -101.089)">
    <g transform="matrix(1, 0, 0, 1, -38.3, 101.09)" filter="url(#shadow)">
      <path id="shadow-2" data-name="shadow" d="M-3318.687-2073.819a134.789,134.789,0,0,1-48.279-8.618c-92.057-34.909-88.625-207.775-88.625-207.775s3.536-161.937,103.347-201.981c121.623-51.662,177.85,47.723,268.98,64.369,41.43,7.567,75.416-.773,105.251-9.113,24.05-6.723,45.4-13.446,65.789-11.837,45.676,3.6,70.666,19.229,51.831,36.335-10.037,9.116-49.665.793-65.271,11.855-29.426,20.856-43.264,69.382-43.264,69.382q-.3,5.091-.578,9.857c149.652,1.76,612.4,7.068,631.036,5.667,22.244-1.671,32.835-32.293,32.835-32.293s24.909,15.521,64.56,21.766,96.6,4.312,96.6,4.312-16.188,17.746-20.569,35.148,3.049,34.46,3.049,34.46-47.635-.381-82,6.474-58.834,19.888-58.834,19.888-8.9-27.5-30.837-30.128c-18.543-2.225-493.248,4.832-639.531,7.067a331.249,331.249,0,0,0,1.671,48.94c2.033,19.491,52.211,39.669,54.411,54.251,1.4,9.255-18.807,21.3-41.218,19.793-24.079-1.615-62.346-40.929-129.026-24.574-74.434,18.256-153.966,76.751-231.308,76.756Z" transform="matrix(0.93, -0.36, 0.36, 0.93, 4282.53, 1729.95)" fill="#262626"/>
    </g>
    <g id="Group_20" data-name="Group 20" transform="matrix(0.875, -0.485, 0.485, 0.875, 36.963, 643.684)">
      <path id="Path_2" data-name="Path 2" d="M0,99.643s660.112-10.354,682.045-7.723,30.837,30.128,30.837,30.128,24.468-13.032,58.834-19.887,82-6.474,82-6.474-7.429-17.058-3.049-34.46,20.568-35.148,20.568-35.148-56.948,1.932-96.6-4.312S710.079,0,710.079,0s-10.592,30.621-32.835,32.293S0,26.077,0,26.077Z" transform="translate(439.894 158.966)" fill="#5f0afd"/>
      <path id="Path_1" data-name="Path 1" d="M486.68,175.735s13.838-48.526,43.264-69.382c15.606-11.061,55.235-2.739,65.271-11.855,18.835-17.106-6.155-32.731-51.831-36.335s-96.214,34.618-171.04,20.95C281.214,62.467,224.986-36.917,103.363,14.744,3.552,54.789.017,216.725.017,216.725S-3.416,389.591,88.641,424.5s189.564-46.054,279.605-68.139c66.68-16.355,104.948,22.96,129.025,24.575,22.411,1.5,42.619-10.538,41.218-19.794-2.2-14.582-52.378-34.76-54.411-54.251C480.825,275.708,481.812,258.742,486.68,175.735Z" transform="translate(0 0)" fill="#5f0afd"/>
      <path id="Path_10" data-name="Path 10" d="M.06,0h7.1l-.03,71.275L0,71.408Z" transform="translate(479.893 186.078)" fill="#5f0afd"/>
    </g>
    <g id="Group_18" data-name="Group 18" transform="matrix(0.875, -0.485, 0.485, 0.875, 34.552, 642.88)">
      <path id="Path_2-2" data-name="Path 2" d="M0,99.643s660.112-10.354,682.045-7.723,30.837,30.128,30.837,30.128,24.468-13.032,58.834-19.887,82-6.474,82-6.474-7.429-17.058-3.049-34.46,20.568-35.148,20.568-35.148-56.948,1.932-96.6-4.312S710.079,0,710.079,0s-10.592,30.621-32.835,32.293S0,26.077,0,26.077Z" transform="translate(439.894 158.966)" fill="#141414"/>
      <path id="Path_1-2" data-name="Path 1" d="M486.68,175.735s13.838-48.526,43.264-69.382c15.606-11.061,55.235-2.739,65.271-11.855,18.835-17.106-6.155-32.731-51.831-36.335s-96.214,34.618-171.04,20.95C281.214,62.467,224.986-36.917,103.363,14.744,3.552,54.789.017,216.725.017,216.725S-3.416,389.591,88.641,424.5s189.564-46.054,279.605-68.139c66.68-16.355,104.948,22.96,129.025,24.575,22.411,1.5,42.619-10.538,41.218-19.794-2.2-14.582-52.378-34.76-54.411-54.251C480.825,275.708,481.812,258.742,486.68,175.735Z" transform="translate(0 0)" fill="#141414"/>
      <path id="Path_10-2" data-name="Path 10" d="M.06,0h7.1l-.03,71.275L0,71.408Z" transform="translate(479.893 186.078)" fill="#141414"/>
    </g>
    <g id="Group_17" data-name="Group 17" transform="matrix(0.875, -0.485, 0.485, 0.875, 25.713, 640.47)">
      <path id="Path_2-3" data-name="Path 2" d="M0,99.643s660.112-10.354,682.045-7.723,30.837,30.128,30.837,30.128,24.468-13.032,58.834-19.887,82-6.474,82-6.474-7.429-17.058-3.049-34.46,20.568-35.148,20.568-35.148-56.948,1.932-96.6-4.312S710.079,0,710.079,0s-10.592,30.621-32.835,32.293S0,26.077,0,26.077Z" transform="translate(439.894 158.966)" fill="#e6e6e6"/>
      <path id="Path_1-3" data-name="Path 1" d="M486.68,175.735s13.838-48.526,43.264-69.382c15.606-11.061,55.235-2.739,65.271-11.855,18.835-17.106-6.155-32.731-51.831-36.335s-96.214,34.618-171.04,20.95C281.214,62.467,224.986-36.917,103.363,14.744,3.552,54.789.017,216.725.017,216.725S-3.416,389.591,88.641,424.5s189.564-46.054,279.605-68.139c66.68-16.355,104.948,22.96,129.025,24.575,22.411,1.5,42.619-10.538,41.218-19.794-2.2-14.582-52.378-34.76-54.411-54.251C480.825,275.708,481.812,258.742,486.68,175.735Z" transform="translate(0 0)" fill="#e6e6e6"/>
      <path id="Path_10-3" data-name="Path 10" d="M.06,0h7.1l-.03,71.275L0,71.408Z" transform="translate(479.893 186.078)" fill="#e6e6e6"/>
    </g>
    <g id="Group_16" data-name="Group 16" transform="matrix(0.875, -0.485, 0.485, 0.875, 22.499, 639.666)">
      <path id="Path_2-4" data-name="Path 2" d="M0,99.643s660.112-10.354,682.045-7.723,30.837,30.128,30.837,30.128,24.468-13.032,58.834-19.887,82-6.474,82-6.474-7.429-17.058-3.049-34.46,20.568-35.148,20.568-35.148-56.948,1.932-96.6-4.312S710.079,0,710.079,0s-10.592,30.621-32.835,32.293S0,26.077,0,26.077Z" transform="translate(439.894 158.966)" fill="#c7c7c7"/>
      <path id="Path_1-4" data-name="Path 1" d="M486.68,175.735s13.838-48.526,43.264-69.382c15.606-11.061,55.235-2.739,65.271-11.855,18.835-17.106-6.155-32.731-51.831-36.335s-96.214,34.618-171.04,20.95C281.214,62.467,224.986-36.917,103.363,14.744,3.552,54.789.017,216.725.017,216.725S-3.416,389.591,88.641,424.5s189.564-46.054,279.605-68.139c66.68-16.355,104.948,22.96,129.025,24.575,22.411,1.5,42.619-10.538,41.218-19.794-2.2-14.582-52.378-34.76-54.411-54.251C480.825,275.708,481.812,258.742,486.68,175.735Z" transform="translate(0 0)" fill="#c7c7c7"/>
      <path id="Path_10-4" data-name="Path 10" d="M.06,0h7.1l-.03,71.275L0,71.408Z" transform="translate(479.893 186.078)" fill="#c7c7c7"/>
    </g>
    <g id="Group_19" data-name="Group 19" transform="matrix(0.875, -0.485, 0.485, 0.875, 13.66, 638.059)">
      <path id="Path_2-5" data-name="Path 2" d="M0,99.643s660.112-10.354,682.045-7.723,30.837,30.128,30.837,30.128,24.468-13.032,58.834-19.887,82-6.474,82-6.474-7.429-17.058-3.049-34.46,20.568-35.148,20.568-35.148-56.948,1.932-96.6-4.312S710.079,0,710.079,0s-10.592,30.621-32.835,32.293S0,26.077,0,26.077Z" transform="translate(439.894 158.966)" fill="#0a0000"/>
      <path id="Path_1-5" data-name="Path 1" d="M486.68,175.735s13.838-48.526,43.264-69.382c15.606-11.061,55.235-2.739,65.271-11.855,18.835-17.106-6.155-32.731-51.831-36.335s-96.214,34.618-171.04,20.95C281.214,62.467,224.986-36.917,103.363,14.744,3.552,54.789.017,216.725.017,216.725S-3.416,389.591,88.641,424.5s189.564-46.054,279.605-68.139c66.68-16.355,104.948,22.96,129.025,24.575,22.411,1.5,42.619-10.538,41.218-19.794-2.2-14.582-52.378-34.76-54.411-54.251C480.825,275.708,481.812,258.742,486.68,175.735Z" transform="translate(0 0)" fill="#0a0000"/>
      <path id="Path_10-5" data-name="Path 10" d="M.06,0h7.1l-.03,71.275L0,71.408Z" transform="translate(479.893 186.078)" fill="#0a0000"/>
    </g>
    <g id="Group_15" data-name="Group 15" transform="matrix(0.875, -0.485, 0.485, 0.875, 12.053, 637.256)">
      <path id="Path_2-6" data-name="Path 2" d="M0,99.643s660.112-10.354,682.045-7.723,30.837,30.128,30.837,30.128,24.468-13.032,58.834-19.887,82-6.474,82-6.474-7.429-17.058-3.049-34.46,20.568-35.148,20.568-35.148-56.948,1.932-96.6-4.312S710.079,0,710.079,0s-10.592,30.621-32.835,32.293S0,26.077,0,26.077Z" transform="translate(439.894 158.966)" fill="#e5e5e5"/>
      <path id="Path_1-6" data-name="Path 1" d="M486.68,175.735s13.838-48.526,43.264-69.382c15.606-11.061,55.235-2.739,65.271-11.855,18.835-17.106-6.155-32.731-51.831-36.335s-96.214,34.618-171.04,20.95C281.214,62.467,224.986-36.917,103.363,14.744,3.552,54.789.017,216.725.017,216.725S-3.416,389.591,88.641,424.5s189.564-46.054,279.605-68.139c66.68-16.355,104.948,22.96,129.025,24.575,22.411,1.5,42.619-10.538,41.218-19.794-2.2-14.582-52.378-34.76-54.411-54.251C480.825,275.708,481.812,258.742,486.68,175.735Z" transform="translate(0 0)" fill="#e5e5e5"/>
      <path id="Path_10-6" data-name="Path 10" d="M.06,0h7.1l-.03,71.275L0,71.408Z" transform="translate(479.893 186.078)" fill="#e5e5e5"/>
    </g>
    <g id="Group_14" data-name="Group 14" transform="matrix(0.875, -0.485, 0.485, 0.875, 0, 635.648)">
      <path id="Path_2-7" data-name="Path 2" d="M0,99.643s660.112-10.354,682.045-7.723,30.837,30.128,30.837,30.128,24.468-13.032,58.834-19.887,82-6.474,82-6.474-7.429-17.058-3.049-34.46,20.568-35.148,20.568-35.148-56.948,1.932-96.6-4.312S710.079,0,710.079,0s-10.592,30.621-32.835,32.293S0,26.077,0,26.077Z" transform="translate(439.894 158.966)" fill="#ededed"/>
      <path id="Path_1-7" data-name="Path 1" d="M486.68,175.735s13.838-48.526,43.264-69.382c15.606-11.061,55.235-2.739,65.271-11.855,18.835-17.106-6.155-32.731-51.831-36.335s-96.214,34.618-171.04,20.95C281.214,62.467,224.986-36.917,103.363,14.744,3.552,54.789.017,216.725.017,216.725S-3.416,389.591,88.641,424.5s189.564-46.054,279.605-68.139c66.68-16.355,104.948,22.96,129.025,24.575,22.411,1.5,42.619-10.538,41.218-19.794-2.2-14.582-52.378-34.76-54.411-54.251C480.825,275.708,481.812,258.742,486.68,175.735Z" transform="translate(0 0)" fill="#ededed"/>
      <path id="Path_10-7" data-name="Path 10" d="M.06,0h7.1l-.03,71.275L0,71.408Z" transform="translate(479.893 186.078)" fill="#ededed"/>
    </g>
    <text id="I_like_music" data-name="I like music" transform="translate(311.616 739.179) rotate(-29)" fill="#171717" font-size="63" font-family="PoiretOne-Regular, Poiret One"><tspan x="0" y="0">I like music</tspan></text>
    <g id="Group_21" data-name="Group 21" transform="translate(-406.878 96.184)">
      <path id="Path_73" data-name="Path 73" d="M0,0H45.654" transform="matrix(-0.485, -0.875, 0.875, -0.485, 693.097, 655.917)" fill="none" stroke="#5f0afd" stroke-width="3"/>
      <path id="Path_74" data-name="Path 74" d="M0,0H27.685" transform="matrix(-0.485, -0.875, 0.875, -0.485, 689.104, 658.13)" fill="none" stroke="#5f0afd" stroke-width="3"/>
    </g>
  </g>
</svg>
